{
	"asset":{
		"generator":"Khronos glTF Blender I/O v4.1.62",
		"version":"2.0"
	},
	"scene":0,
	"scenes":[
		{
			"name":"Scene",
			"nodes":[
				0
			]
		}
	],
	"nodes":[
		{
			"mesh":0,
			"name":"Main Case Base"
		}
	],
	"materials":[
		{
			"doubleSided":true,
			"emissiveFactor":[
				1,
				1,
				1
			],
			"emissiveTexture":{
				"index":0
			},
			"name":"T_ComputerLaptop",
			"normalTexture":{
				"index":1
			},
			"pbrMetallicRoughness":{
				"baseColorTexture":{
					"index":2
				},
				"metallicRoughnessTexture":{
					"index":3
				}
			}
		}
	],
	"meshes":[
		{
			"name":"Cube.001",
			"primitives":[
				{
					"attributes":{
						"POSITION":0,
						"NORMAL":1,
						"TEXCOORD_0":2
					},
					"indices":3,
					"material":0
				}
			]
		}
	],
	"textures":[
		{
			"sampler":0,
			"source":0
		},
		{
			"sampler":0,
			"source":1
		},
		{
			"sampler":0,
			"source":2
		},
		{
			"sampler":0,
			"source":3
		}
	],
	"images":[
		{
			"mimeType":"image/png",
			"name":"ComputerLaptopFuture_Open_DefaultMaterial_Emissive",
			"uri":"textures/ComputerLaptopFuture_Open_DefaultMaterial_Emissive.png"
		},
		{
			"mimeType":"image/png",
			"name":"ComputerLaptopFuture_Open_DefaultMaterial_Normal",
			"uri":"textures/ComputerLaptopFuture_Open_DefaultMaterial_Normal.png"
		},
		{
			"mimeType":"image/png",
			"name":"ComputerLaptopFuture_Open_DefaultMaterial_BaseColor",
			"uri":"textures/ComputerLaptopFuture_Open_DefaultMaterial_BaseColor.png"
		},
		{
			"mimeType":"image/png",
			"name":"ComputerLaptopFuture_Open_DefaultMaterial_Metallic.png-ComputerLaptopFuture_Open_DefaultMaterial_Roughness.png",
			"uri":"textures/ComputerLaptopFuture_Open_DefaultMaterial_Metallic_png-ComputerLaptopFuture_Open_DefaultMaterial_Roughness_png.png"
		}
	],
	"accessors":[
		{
			"bufferView":0,
			"componentType":5126,
			"count":3965,
			"max":[
				1.4728974103927612,
				1.9675158262252808,
				1.0409104824066162
			],
			"min":[
				-1.4728974103927612,
				0.0021833255887031555,
				-1.1800236701965332
			],
			"type":"VEC3"
		},
		{
			"bufferView":1,
			"componentType":5126,
			"count":3965,
			"type":"VEC3"
		},
		{
			"bufferView":2,
			"componentType":5126,
			"count":3965,
			"type":"VEC2"
		},
		{
			"bufferView":3,
			"componentType":5123,
			"count":8532,
			"type":"SCALAR"
		}
	],
	"bufferViews":[
		{
			"buffer":0,
			"byteLength":47580,
			"byteOffset":0,
			"target":34962
		},
		{
			"buffer":0,
			"byteLength":47580,
			"byteOffset":47580,
			"target":34962
		},
		{
			"buffer":0,
			"byteLength":31720,
			"byteOffset":95160,
			"target":34962
		},
		{
			"buffer":0,
			"byteLength":17064,
			"byteOffset":126880,
			"target":34963
		}
	],
	"samplers":[
		{
			"magFilter":9729,
			"minFilter":9987
		}
	],
	"buffers":[
		{
			"byteLength":143944,
			"uri":"scene.bin"
		}
	]
}
