{
  "accessors": [
    {
      "bufferView": 2,
      "componentType": 5126,
      "count": 8530,
      "max": [
        0.8919976949691772,
        2.031744956970215,
        1.6937940120697021
      ],
      "min": [
        -0.8920295238494873,
        -0.7064446806907654,
        0.02184491977095604
      ],
      "type": "VEC3"
    },
    {
      "bufferView": 2,
      "byteOffset": 102360,
      "componentType": 5126,
      "count": 8530,
      "max": [
        1.0,
        0.9999700784683228,
        0.9999983906745911
      ],
      "min": [
        -1.0,
        -0.999994695186615,
        -0.9999983906745911
      ],
      "type": "VEC3"
    },
    {
      "bufferView": 1,
      "componentType": 5126,
      "count": 8530,
      "max": [
        0.9972339272499084,
        0.9923210144042969
      ],
      "min": [
        0.0027660720515996218,
        0.0027660720515996218
      ],
      "type": "VEC2"
    },
    {
      "bufferView": 0,
      "componentType": 5125,
      "count": 22998,
      "type": "SCALAR"
    }
  ],
  "asset": {
    "extras": {
      "author": "Cadely (https://sketchfab.com/cadely)",
      "license": "CC-BY-4.0 (http://creativecommons.org/licenses/by/4.0/)",
      "source": "https://sketchfab.com/3d-models/futuristic-neon-smartcar-bb3cac97f52443b7b697c440a45c2561",
      "title": "Futuristic Neon Smartcar"
    },
    "generator": "Sketchfab-12.68.0",
    "version": "2.0"
  },
  "bufferViews": [
    {
      "buffer": 0,
      "byteLength": 91992,
      "name": "floatBufferViews",
      "target": 34963
    },
    {
      "buffer": 0,
      "byteLength": 68240,
      "byteOffset": 91992,
      "byteStride": 8,
      "name": "floatBufferViews",
      "target": 34962
    },
    {
      "buffer": 0,
      "byteLength": 204720,
      "byteOffset": 160232,
      "byteStride": 12,
      "name": "floatBufferViews",
      "target": 34962
    }
  ],
  "buffers": [
    {
      "byteLength": 364952,
      "uri": "scene.bin"
    }
  ],
  "extensionsRequired": [
    "KHR_materials_pbrSpecularGlossiness"
  ],
  "extensionsUsed": [
    "KHR_materials_pbrSpecularGlossiness"
  ],
  "images": [
    {
      "uri": "textures/hpl3export_paint_turquoise.001_diffuse.png"
    },
    {
      "uri": "textures/hpl3export_paint_turquoise.001_specularGlossiness.png"
    },
    {
      "uri": "textures/hpl3export_paint_turquoise.001_emissive.png"
    }
  ],
  "materials": [
    {
      "doubleSided": true,
      "emissiveFactor": [
        0.501515244,
        0.501515244,
        0.501515244
      ],
      "emissiveTexture": {
        "index": 2
      },
      "extensions": {
        "KHR_materials_pbrSpecularGlossiness": {
          "diffuseFactor": [
            1.0,
            1.0,
            1.0,
            1.0
          ],
          "diffuseTexture": {
            "index": 0
          },
          "glossinessFactor": 0.889242415,
          "specularFactor": [
            1.0,
            1.0,
            1.0
          ],
          "specularGlossinessTexture": {
            "index": 1
          }
        }
      },
      "name": "hpl3export_paint_turquoise.001"
    }
  ],
  "meshes": [
    {
      "name": "hpl3export_paint_turquoise_001-material",
      "primitives": [
        {
          "attributes": {
            "NORMAL": 1,
            "POSITION": 0,
            "TEXCOORD_0": 2
          },
          "indices": 3,
          "material": 0,
          "mode": 4
        }
      ]
    }
  ],
  "nodes": [
    {
      "children": [
        1
      ],
      "matrix": [
        -0.9203009605407715,
        -8.68663323225868e-17,
        0.3912111818790436,
        0.0,
        0.3912111818790436,
        -2.0434786319540243e-16,
        0.9203009605407715,
        0.0,
        0.0,
        1.0,
        2.220446049250313e-16,
        0.0,
        -0.2592661380767822,
        2.8254777130071196e-16,
        -1.2724820375442505,
        1.0
      ],
      "name": "Sketchfab_model"
    },
    {
      "children": [
        2
      ],
      "name": "Collada visual scene group"
    },
    {
      "children": [
        3
      ],
      "name": "neon_smartcar.001"
    },
    {
      "mesh": 0,
      "name": "hpl3export_paint_turquoise_001-material"
    }
  ],
  "samplers": [
    {
      "magFilter": 9729,
      "minFilter": 9987,
      "wrapS": 10497,
      "wrapT": 10497
    }
  ],
  "scene": 0,
  "scenes": [
    {
      "name": "Sketchfab_Scene",
      "nodes": [
        0
      ]
    }
  ],
  "textures": [
    {
      "sampler": 0,
      "source": 0
    },
    {
      "sampler": 0,
      "source": 1
    },
    {
      "sampler": 0,
      "source": 2
    }
  ]
}
